<svg xmlns="http://www.w3.org/2000/svg" viewBox="0 0 1000 84" width="100%" role="img" aria-label="GITHUB ANALYTICS">
<style>
.s{animation:tw 3s ease-in-out infinite}
@keyframes tw{0%,100%{opacity:.15}50%{opacity:1}}
.sp{animation:sp 4s ease-in-out infinite;transform-box:fill-box;transform-origin:center}
@keyframes sp{0%,100%{opacity:.2;transform:scale(.6)}50%{opacity:1;transform:scale(1.15)}}
</style>
<defs>
<linearGradient id="hull" x1="0" y1="0" x2="0" y2="1"><stop offset="0" stop-color="#ffffff"/><stop offset="1" stop-color="#9aa5ff"/></linearGradient>
<radialGradient id="glass" cx=".35" cy=".3" r=".9"><stop offset="0" stop-color="#e8fffb"/><stop offset=".5" stop-color="#00F5D4"/><stop offset="1" stop-color="#0E75B6"/></radialGradient>
<linearGradient id="txt" x1="0" y1="0" x2="1" y2="0"><stop offset="0" stop-color="#00F5D4"/><stop offset=".5" stop-color="#F15BB5"/><stop offset="1" stop-color="#FEE440"/></linearGradient>
<filter id="glow" x="-20%" y="-50%" width="140%" height="200%"><feGaussianBlur stdDeviation="3" result="b"/><feMerge><feMergeNode in="b"/><feMergeNode in="SourceGraphic"/></feMerge></filter>
<filter id="blur40" x="-50%" y="-50%" width="200%" height="200%"><feGaussianBlur stdDeviation="40"/></filter>
<filter id="blur8" x="-50%" y="-50%" width="200%" height="200%"><feGaussianBlur stdDeviation="8"/></filter>
<linearGradient id="bg" x1="0" y1="0" x2="1" y2="1"><stop offset="0" stop-color="#05030f"/><stop offset=".5" stop-color="#140a33"/><stop offset="1" stop-color="#1d1447"/></linearGradient><radialGradient id="pp94542" cx=".35" cy=".3" r=".9"><stop offset="0" stop-color="#7CFFCB"/><stop offset="1" stop-color="#F15BB5"/></radialGradient><radialGradient id="pp5544" cx=".35" cy=".3" r=".9"><stop offset="0" stop-color="#F15BB5"/><stop offset="1" stop-color="#7CFFCB"/></radialGradient><clipPath id="cp"><rect width="1000" height="84" rx="14"/></clipPath></defs>
<g clip-path="url(#cp)">
<rect width="1000" height="84" fill="url(#bg)"/>
<ellipse cx="220" cy="40" rx="260" ry="50" fill="#7B2FF7" opacity=".35" filter="url(#blur40)"/>
<ellipse cx="780" cy="50" rx="240" ry="45" fill="#F15BB5" opacity=".25" filter="url(#blur40)"/>
<circle cx="759.2" cy="66.1" r="1.36" fill="#fff4b0" class="s" style="animation-delay:2.5s;animation-duration:4.3s"/>
<circle cx="764.7" cy="58.6" r="0.46" fill="#ffffff" class="s" style="animation-delay:4.5s;animation-duration:3.2s"/>
<circle cx="365.4" cy="31.0" r="1.20" fill="#00F5D4" class="s" style="animation-delay:1.1s;animation-duration:2.9s"/>
<circle cx="825.5" cy="46.9" r="0.80" fill="#ffffff" class="s" style="animation-delay:1.5s;animation-duration:3.1s"/>
<circle cx="843.4" cy="2.2" r="1.25" fill="#00F5D4" class="s" style="animation-delay:3.4s;animation-duration:4.6s"/>
<circle cx="225.2" cy="53.1" r="1.48" fill="#ffd6f5" class="s" style="animation-delay:3.1s;animation-duration:3.4s"/>
<circle cx="460.7" cy="44.2" r="0.78" fill="#ffffff" class="s" style="animation-delay:0.7s;animation-duration:4.5s"/>
<circle cx="499.7" cy="32.1" r="0.80" fill="#ffffff" class="s" style="animation-delay:0.8s;animation-duration:4.0s"/>
<circle cx="957.2" cy="56.5" r="1.15" fill="#ffd6f5" class="s" style="animation-delay:3.8s;animation-duration:3.7s"/>
<circle cx="971.3" cy="56.8" r="0.57" fill="#fff4b0" class="s" style="animation-delay:0.5s;animation-duration:4.0s"/>
<circle cx="885.3" cy="33.9" r="0.92" fill="#ffffff" class="s" style="animation-delay:1.0s;animation-duration:3.0s"/>
<circle cx="913.3" cy="21.4" r="0.54" fill="#ffffff" class="s" style="animation-delay:2.1s;animation-duration:3.8s"/>
<circle cx="732.0" cy="82.6" r="0.83" fill="#00F5D4" class="s" style="animation-delay:1.8s;animation-duration:3.7s"/>
<circle cx="895.6" cy="29.5" r="0.52" fill="#ffd6f5" class="s" style="animation-delay:0.4s;animation-duration:4.6s"/>
<circle cx="971.4" cy="61.4" r="1.32" fill="#00F5D4" class="s" style="animation-delay:2.8s;animation-duration:4.3s"/>
<circle cx="912.9" cy="40.2" r="1.30" fill="#ffffff" class="s" style="animation-delay:0.5s;animation-duration:4.7s"/>
<circle cx="58.4" cy="46.4" r="1.12" fill="#ffffff" class="s" style="animation-delay:1.8s;animation-duration:4.2s"/>
<circle cx="511.8" cy="0.5" r="0.42" fill="#00F5D4" class="s" style="animation-delay:0.0s;animation-duration:4.5s"/>
<circle cx="454.8" cy="76.1" r="1.09" fill="#fff4b0" class="s" style="animation-delay:3.0s;animation-duration:4.7s"/>
<circle cx="472.4" cy="19.4" r="1.09" fill="#bfe9ff" class="s" style="animation-delay:1.2s;animation-duration:4.0s"/>
<circle cx="187.8" cy="75.0" r="0.92" fill="#ffffff" class="s" style="animation-delay:2.7s;animation-duration:3.3s"/>
<circle cx="991.6" cy="12.1" r="0.75" fill="#bfe9ff" class="s" style="animation-delay:0.8s;animation-duration:3.3s"/>
<circle cx="586.6" cy="27.2" r="1.30" fill="#fff4b0" class="s" style="animation-delay:0.8s;animation-duration:4.9s"/>
<circle cx="386.4" cy="14.2" r="0.80" fill="#bfe9ff" class="s" style="animation-delay:4.5s;animation-duration:3.7s"/>
<circle cx="62.8" cy="76.3" r="0.61" fill="#ffd6f5" class="s" style="animation-delay:4.9s;animation-duration:3.2s"/>
<circle cx="508.7" cy="23.5" r="1.31" fill="#fff4b0" class="s" style="animation-delay:3.8s;animation-duration:3.5s"/>
<circle cx="128.1" cy="4.5" r="1.35" fill="#bfe9ff" class="s" style="animation-delay:2.3s;animation-duration:2.9s"/>
<circle cx="66.9" cy="36.0" r="0.52" fill="#ffd6f5" class="s" style="animation-delay:3.8s;animation-duration:2.6s"/>
<circle cx="932.4" cy="80.7" r="1.47" fill="#fff4b0" class="s" style="animation-delay:0.5s;animation-duration:4.1s"/>
<circle cx="484.3" cy="64.7" r="1.45" fill="#ffffff" class="s" style="animation-delay:1.3s;animation-duration:2.7s"/>
<circle cx="942.3" cy="35.4" r="1.45" fill="#bfe9ff" class="s" style="animation-delay:1.2s;animation-duration:4.5s"/>
<circle cx="186.2" cy="11.0" r="1.14" fill="#ffffff" class="s" style="animation-delay:0.0s;animation-duration:4.2s"/>
<circle cx="357.4" cy="62.9" r="0.91" fill="#ffffff" class="s" style="animation-delay:2.6s;animation-duration:3.5s"/>
<circle cx="235.4" cy="41.5" r="1.12" fill="#ffffff" class="s" style="animation-delay:4.5s;animation-duration:4.1s"/>
<circle cx="708.9" cy="53.8" r="0.43" fill="#ffffff" class="s" style="animation-delay:4.5s;animation-duration:2.4s"/>
<circle cx="224.5" cy="1.9" r="0.88" fill="#ffffff" class="s" style="animation-delay:2.9s;animation-duration:4.5s"/>
<circle cx="136.0" cy="18.3" r="0.68" fill="#ffffff" class="s" style="animation-delay:3.0s;animation-duration:2.6s"/>
<circle cx="531.0" cy="9.0" r="1.34" fill="#fff4b0" class="s" style="animation-delay:3.3s;animation-duration:3.7s"/>
<circle cx="253.8" cy="36.8" r="1.41" fill="#fff4b0" class="s" style="animation-delay:2.1s;animation-duration:3.7s"/>
<circle cx="184.4" cy="78.2" r="1.23" fill="#00F5D4" class="s" style="animation-delay:1.8s;animation-duration:2.3s"/>
<circle cx="885.8" cy="37.1" r="1.39" fill="#ffd6f5" class="s" style="animation-delay:1.7s;animation-duration:2.8s"/>
<circle cx="522.2" cy="79.2" r="0.69" fill="#ffffff" class="s" style="animation-delay:2.4s;animation-duration:4.9s"/>
<circle cx="44.8" cy="73.3" r="1.29" fill="#ffffff" class="s" style="animation-delay:3.2s;animation-duration:3.3s"/>
<circle cx="559.0" cy="40.9" r="0.51" fill="#ffffff" class="s" style="animation-delay:0.2s;animation-duration:2.8s"/>
<circle cx="92.0" cy="9.5" r="0.68" fill="#00F5D4" class="s" style="animation-delay:2.0s;animation-duration:3.7s"/>
<circle cx="365.0" cy="70.4" r="1.25" fill="#ffffff" class="s" style="animation-delay:0.2s;animation-duration:5.0s"/>
<circle cx="468.6" cy="43.3" r="1.29" fill="#bfe9ff" class="s" style="animation-delay:0.6s;animation-duration:3.6s"/>
<circle cx="696.9" cy="48.8" r="1.06" fill="#fff4b0" class="s" style="animation-delay:2.6s;animation-duration:2.1s"/>
<circle cx="214.7" cy="49.3" r="1.48" fill="#00F5D4" class="s" style="animation-delay:1.9s;animation-duration:2.3s"/>
<circle cx="761.1" cy="56.6" r="0.81" fill="#ffd6f5" class="s" style="animation-delay:3.4s;animation-duration:4.0s"/>
<circle cx="645.9" cy="17.3" r="0.53" fill="#ffd6f5" class="s" style="animation-delay:4.1s;animation-duration:3.3s"/>
<circle cx="529.8" cy="70.2" r="0.72" fill="#ffd6f5" class="s" style="animation-delay:4.6s;animation-duration:3.3s"/>
<circle cx="779.5" cy="28.6" r="0.95" fill="#00F5D4" class="s" style="animation-delay:1.1s;animation-duration:4.1s"/>
<circle cx="758.1" cy="51.7" r="0.41" fill="#ffd6f5" class="s" style="animation-delay:4.7s;animation-duration:4.6s"/>
<circle cx="977.2" cy="1.8" r="1.19" fill="#bfe9ff" class="s" style="animation-delay:3.3s;animation-duration:4.7s"/>
<g><animateTransform attributeName="transform" type="translate" values="0 0;0 6;0 0" dur="9s" repeatCount="indefinite"/>
<circle cx="945" cy="42" r="22.5" fill="#7CFFCB" opacity=".25" filter="url(#blur8)"/>
<circle cx="945" cy="42" r="15" fill="url(#pp94542)"/>
<circle cx="940.5" cy="45.0" r="2.6999999999999997" fill="#000" opacity=".15"/>
<circle cx="948.75" cy="36.75" r="1.7999999999999998" fill="#000" opacity=".15"/>
</g>
<g><animateTransform attributeName="transform" type="translate" values="0 0;0 6;0 0" dur="7s" repeatCount="indefinite"/>
<circle cx="55" cy="44" r="13.5" fill="#F15BB5" opacity=".25" filter="url(#blur8)"/>
<circle cx="55" cy="44" r="9" fill="url(#pp5544)"/>
<circle cx="52.3" cy="45.8" r="1.6199999999999999" fill="#000" opacity=".15"/>
<circle cx="57.25" cy="40.85" r="1.08" fill="#000" opacity=".15"/>
</g>
<g><g transform="scale(0.45)" opacity="0.9">
<polygon points="-30,-5 -52,0 -30,5" fill="#FF9F1C"><animate attributeName="points" values="-30,-5 -54,0 -30,5;-30,-6 -66,0 -30,6;-30,-5 -50,0 -30,5;-30,-5 -54,0 -30,5" dur=".3s" repeatCount="indefinite"/></polygon>
<polygon points="-30,-3 -44,0 -30,3" fill="#FEE440"><animate attributeName="points" values="-30,-3 -44,0 -30,3;-30,-3.5 -52,0 -30,3.5;-30,-3 -42,0 -30,3;-30,-3 -44,0 -30,3" dur=".3s" repeatCount="indefinite"/></polygon>
<polygon points="-6,-8 -24,-25 -15,-25 10,-8" fill="#7B2FF7"/>
<polygon points="-6,8 -24,25 -15,25 10,8" fill="#7B2FF7"/>
<polygon points="-6,-8 -20,-21 -15,-21 2,-8" fill="#F15BB5" opacity=".8"/>
<polygon points="-6,8 -20,21 -15,21 2,8" fill="#F15BB5" opacity=".8"/>
<path d="M-32,-7 Q-32,-10 -27,-10 L14,-10 Q34,-7 40,0 Q34,7 14,10 L-27,10 Q-32,10 -32,7 Z" fill="url(#hull)"/>
<rect x="-26" y="-2" width="30" height="4" fill="#F15BB5" opacity=".85"/>
<ellipse cx="14" cy="0" rx="10" ry="5.5" fill="url(#glass)"/>
<ellipse cx="11" cy="-1.5" rx="4" ry="1.8" fill="#fff" opacity=".7"/>
</g><animateMotion path="M -70,60 C 250,20 600,70 1080,25" dur="9s" begin="9.1s" repeatCount="indefinite" rotate="auto"/></g>
<text x="500" y="52" text-anchor="middle" font-family="'Segoe UI','Helvetica Neue',Arial,sans-serif" font-weight="800" font-size="28" letter-spacing="6" fill="url(#txt)" filter="url(#glow)">GITHUB ANALYTICS</text>
</g>
<rect x="1" y="1" width="998" height="82" rx="13" fill="none" stroke="#7B2FF7" stroke-opacity=".55" stroke-width="1.5"/>
</svg>