<svg xmlns="http://www.w3.org/2000/svg" viewBox="0 0 1000 214" width="100%" role="img" aria-label="Looking for an entry-level Generative AI or Cloud Engineering role. Relocation welcome.">
<style>
.s{animation:tw 3s ease-in-out infinite}
@keyframes tw{0%,100%{opacity:.15}50%{opacity:1}}
.sp{animation:sp 4s ease-in-out infinite;transform-box:fill-box;transform-origin:center}
@keyframes sp{0%,100%{opacity:.2;transform:scale(.6)}50%{opacity:1;transform:scale(1.15)}}
</style><style>
.fl{stroke-dasharray:6 6;animation:fl 1s linear infinite}
@keyframes fl{to{stroke-dashoffset:-12}}
.bt{animation:bt 2.4s ease-in-out infinite}
@keyframes bt{0%,100%{opacity:.85}50%{opacity:1}}
</style>
<defs>
<linearGradient id="hull" x1="0" y1="0" x2="0" y2="1"><stop offset="0" stop-color="#ffffff"/><stop offset="1" stop-color="#9aa5ff"/></linearGradient>
<radialGradient id="glass" cx=".35" cy=".3" r=".9"><stop offset="0" stop-color="#e8fffb"/><stop offset=".5" stop-color="#00F5D4"/><stop offset="1" stop-color="#0E75B6"/></radialGradient>
<linearGradient id="txt" x1="0" y1="0" x2="1" y2="0"><stop offset="0" stop-color="#00F5D4"/><stop offset=".5" stop-color="#F15BB5"/><stop offset="1" stop-color="#FEE440"/></linearGradient>
<filter id="glow" x="-20%" y="-50%" width="140%" height="200%"><feGaussianBlur stdDeviation="3" result="b"/><feMerge><feMergeNode in="b"/><feMergeNode in="SourceGraphic"/></feMerge></filter>
<filter id="blur40" x="-50%" y="-50%" width="200%" height="200%"><feGaussianBlur stdDeviation="40"/></filter>
<filter id="blur8" x="-50%" y="-50%" width="200%" height="200%"><feGaussianBlur stdDeviation="8"/></filter>
<linearGradient id="bg" x1="0" y1="0" x2="1" y2="1"><stop offset="0" stop-color="#05030f"/><stop offset=".5" stop-color="#140a33"/><stop offset="1" stop-color="#1d1447"/></linearGradient><linearGradient id="trail" x1="1" y1="1" x2="0" y2="0"><stop offset="0" stop-color="#fff"/><stop offset="1" stop-color="#fff" stop-opacity="0"/></linearGradient><marker id="ah" viewBox="0 0 10 10" refX="9" refY="5" markerWidth="7" markerHeight="7" orient="auto-start-reverse"><path d="M0,0 L10,5 L0,10 z" fill="#b39bff"/></marker><radialGradient id="pp96238" cx=".35" cy=".3" r=".9"><stop offset="0" stop-color="#7CFFCB"/><stop offset="1" stop-color="#0E75B6"/></radialGradient><radialGradient id="pp38176" cx=".35" cy=".3" r=".9"><stop offset="0" stop-color="#0E75B6"/><stop offset="1" stop-color="#7CFFCB"/></radialGradient><clipPath id="cp"><rect width="1000" height="214" rx="18"/></clipPath></defs>
<g clip-path="url(#cp)">
<rect width="1000" height="214" fill="url(#bg)"/>
<ellipse cx="200" cy="64" rx="300" ry="54" fill="#7B2FF7" opacity=".3" filter="url(#blur40)"/>
<ellipse cx="800" cy="150" rx="300" ry="54" fill="#F15BB5" opacity=".22" filter="url(#blur40)"/>
<ellipse cx="520" cy="107" rx="240" ry="43" fill="#00F5D4" opacity=".08" filter="url(#blur40)"/>
<circle cx="70.8" cy="93.0" r="0.70" fill="#ffd6f5" class="s" style="animation-delay:1.5s;animation-duration:4.9s"/>
<circle cx="783.3" cy="20.4" r="1.44" fill="#ffd6f5" class="s" style="animation-delay:0.9s;animation-duration:3.6s"/>
<circle cx="917.1" cy="153.2" r="1.26" fill="#00F5D4" class="s" style="animation-delay:0.8s;animation-duration:4.2s"/>
<circle cx="457.9" cy="108.1" r="1.03" fill="#ffd6f5" class="s" style="animation-delay:4.9s;animation-duration:3.1s"/>
<circle cx="880.4" cy="151.9" r="1.24" fill="#fff4b0" class="s" style="animation-delay:1.0s;animation-duration:3.0s"/>
<circle cx="483.0" cy="65.6" r="0.75" fill="#ffffff" class="s" style="animation-delay:3.8s;animation-duration:3.0s"/>
<circle cx="666.8" cy="75.6" r="1.55" fill="#ffffff" class="s" style="animation-delay:1.6s;animation-duration:3.2s"/>
<circle cx="17.2" cy="25.2" r="0.97" fill="#ffd6f5" class="s" style="animation-delay:0.3s;animation-duration:3.2s"/>
<circle cx="703.4" cy="158.3" r="1.13" fill="#bfe9ff" class="s" style="animation-delay:2.4s;animation-duration:3.1s"/>
<circle cx="366.9" cy="196.8" r="1.56" fill="#ffffff" class="s" style="animation-delay:0.0s;animation-duration:2.9s"/>
<circle cx="310.6" cy="2.6" r="0.97" fill="#bfe9ff" class="s" style="animation-delay:2.9s;animation-duration:3.4s"/>
<circle cx="34.8" cy="110.6" r="0.61" fill="#bfe9ff" class="s" style="animation-delay:1.7s;animation-duration:2.3s"/>
<circle cx="60.3" cy="165.8" r="1.36" fill="#ffffff" class="s" style="animation-delay:2.0s;animation-duration:2.5s"/>
<circle cx="153.8" cy="144.2" r="1.24" fill="#ffffff" class="s" style="animation-delay:3.8s;animation-duration:2.3s"/>
<circle cx="422.1" cy="119.8" r="0.76" fill="#ffd6f5" class="s" style="animation-delay:4.6s;animation-duration:4.5s"/>
<circle cx="600.0" cy="14.2" r="1.29" fill="#ffffff" class="s" style="animation-delay:2.5s;animation-duration:4.0s"/>
<circle cx="173.8" cy="118.7" r="0.85" fill="#fff4b0" class="s" style="animation-delay:0.5s;animation-duration:2.8s"/>
<circle cx="704.3" cy="57.6" r="0.49" fill="#ffffff" class="s" style="animation-delay:2.0s;animation-duration:4.0s"/>
<circle cx="719.1" cy="122.0" r="1.54" fill="#ffffff" class="s" style="animation-delay:4.2s;animation-duration:3.8s"/>
<circle cx="753.2" cy="185.7" r="0.54" fill="#fff4b0" class="s" style="animation-delay:0.8s;animation-duration:4.8s"/>
<circle cx="267.8" cy="111.6" r="1.07" fill="#ffd6f5" class="s" style="animation-delay:3.8s;animation-duration:4.1s"/>
<circle cx="778.3" cy="67.6" r="0.77" fill="#bfe9ff" class="s" style="animation-delay:1.4s;animation-duration:2.1s"/>
<circle cx="82.3" cy="155.4" r="1.03" fill="#bfe9ff" class="s" style="animation-delay:2.8s;animation-duration:5.0s"/>
<circle cx="95.1" cy="43.4" r="1.20" fill="#ffd6f5" class="s" style="animation-delay:4.8s;animation-duration:2.8s"/>
<circle cx="767.9" cy="194.3" r="0.70" fill="#fff4b0" class="s" style="animation-delay:2.0s;animation-duration:4.1s"/>
<circle cx="75.2" cy="26.5" r="0.76" fill="#bfe9ff" class="s" style="animation-delay:3.6s;animation-duration:4.3s"/>
<circle cx="194.3" cy="34.9" r="1.38" fill="#bfe9ff" class="s" style="animation-delay:4.5s;animation-duration:4.1s"/>
<circle cx="751.0" cy="30.6" r="0.77" fill="#ffd6f5" class="s" style="animation-delay:3.8s;animation-duration:4.9s"/>
<circle cx="438.2" cy="68.2" r="1.48" fill="#00F5D4" class="s" style="animation-delay:1.9s;animation-duration:4.9s"/>
<circle cx="518.0" cy="122.3" r="1.28" fill="#fff4b0" class="s" style="animation-delay:2.1s;animation-duration:2.3s"/>
<circle cx="43.1" cy="46.9" r="1.00" fill="#fff4b0" class="s" style="animation-delay:2.2s;animation-duration:4.4s"/>
<circle cx="33.9" cy="202.8" r="0.56" fill="#ffd6f5" class="s" style="animation-delay:1.6s;animation-duration:4.7s"/>
<circle cx="256.8" cy="43.3" r="0.87" fill="#ffd6f5" class="s" style="animation-delay:0.4s;animation-duration:4.3s"/>
<circle cx="963.5" cy="102.1" r="0.72" fill="#ffffff" class="s" style="animation-delay:4.7s;animation-duration:2.3s"/>
<circle cx="39.0" cy="131.4" r="0.78" fill="#fff4b0" class="s" style="animation-delay:4.9s;animation-duration:3.6s"/>
<circle cx="759.2" cy="153.6" r="1.38" fill="#ffffff" class="s" style="animation-delay:2.9s;animation-duration:3.9s"/>
<circle cx="324.6" cy="59.5" r="0.62" fill="#00F5D4" class="s" style="animation-delay:2.0s;animation-duration:2.6s"/>
<circle cx="882.0" cy="167.4" r="1.45" fill="#fff4b0" class="s" style="animation-delay:4.1s;animation-duration:4.3s"/>
<circle cx="742.3" cy="33.3" r="1.18" fill="#fff4b0" class="s" style="animation-delay:0.2s;animation-duration:4.3s"/>
<circle cx="645.8" cy="7.9" r="0.85" fill="#ffffff" class="s" style="animation-delay:4.3s;animation-duration:2.6s"/>
<circle cx="29.1" cy="54.5" r="1.36" fill="#ffffff" class="s" style="animation-delay:1.2s;animation-duration:3.1s"/>
<circle cx="7.2" cy="74.4" r="0.58" fill="#00F5D4" class="s" style="animation-delay:4.4s;animation-duration:4.5s"/>
<circle cx="436.7" cy="205.1" r="1.05" fill="#bfe9ff" class="s" style="animation-delay:3.2s;animation-duration:3.3s"/>
<circle cx="610.8" cy="1.3" r="0.65" fill="#fff4b0" class="s" style="animation-delay:1.0s;animation-duration:4.3s"/>
<circle cx="414.2" cy="57.0" r="0.98" fill="#ffffff" class="s" style="animation-delay:3.2s;animation-duration:4.6s"/>
<circle cx="168.7" cy="11.2" r="0.78" fill="#fff4b0" class="s" style="animation-delay:0.2s;animation-duration:2.3s"/>
<circle cx="384.2" cy="86.7" r="1.44" fill="#ffffff" class="s" style="animation-delay:2.7s;animation-duration:4.0s"/>
<circle cx="787.4" cy="20.5" r="1.46" fill="#ffffff" class="s" style="animation-delay:0.9s;animation-duration:5.0s"/>
<circle cx="252.4" cy="65.9" r="1.30" fill="#bfe9ff" class="s" style="animation-delay:0.6s;animation-duration:3.9s"/>
<circle cx="461.3" cy="144.1" r="1.47" fill="#ffd6f5" class="s" style="animation-delay:3.9s;animation-duration:2.9s"/>
<circle cx="791.6" cy="105.5" r="0.55" fill="#ffd6f5" class="s" style="animation-delay:0.7s;animation-duration:3.4s"/>
<circle cx="27.5" cy="87.8" r="0.85" fill="#00F5D4" class="s" style="animation-delay:3.9s;animation-duration:3.7s"/>
<circle cx="602.5" cy="156.1" r="1.01" fill="#ffd6f5" class="s" style="animation-delay:2.9s;animation-duration:2.6s"/>
<circle cx="22.6" cy="126.6" r="1.07" fill="#ffffff" class="s" style="animation-delay:1.0s;animation-duration:2.8s"/>
<circle cx="295.2" cy="109.1" r="1.45" fill="#fff4b0" class="s" style="animation-delay:2.1s;animation-duration:2.4s"/>
<circle cx="656.2" cy="152.6" r="0.41" fill="#ffd6f5" class="s" style="animation-delay:3.6s;animation-duration:4.2s"/>
<circle cx="949.6" cy="168.8" r="1.59" fill="#ffffff" class="s" style="animation-delay:1.3s;animation-duration:2.6s"/>
<circle cx="79.0" cy="176.1" r="1.11" fill="#bfe9ff" class="s" style="animation-delay:2.9s;animation-duration:4.6s"/>
<circle cx="558.7" cy="19.8" r="0.78" fill="#ffffff" class="s" style="animation-delay:1.9s;animation-duration:4.5s"/>
<g><animateTransform attributeName="transform" type="translate" values="0 0;0 6;0 0" dur="8s" repeatCount="indefinite"/>
<circle cx="962" cy="38" r="16.5" fill="#7CFFCB" opacity=".25" filter="url(#blur8)"/>
<circle cx="962" cy="38" r="11" fill="url(#pp96238)"/>
<circle cx="958.7" cy="40.2" r="1.98" fill="#000" opacity=".15"/>
<circle cx="964.75" cy="34.15" r="1.3199999999999998" fill="#000" opacity=".15"/>
</g><g><animateTransform attributeName="transform" type="translate" values="0 0;0 6;0 0" dur="9s" repeatCount="indefinite"/>
<circle cx="38" cy="176" r="13.5" fill="#0E75B6" opacity=".25" filter="url(#blur8)"/>
<circle cx="38" cy="176" r="9" fill="url(#pp38176)"/>
<circle cx="35.3" cy="177.8" r="1.6199999999999999" fill="#000" opacity=".15"/>
<circle cx="40.25" cy="172.85" r="1.08" fill="#000" opacity=".15"/>
</g>
<g><g transform="scale(0.5)" opacity="0.7">
<polygon points="-30,-5 -52,0 -30,5" fill="#FF9F1C"><animate attributeName="points" values="-30,-5 -54,0 -30,5;-30,-6 -66,0 -30,6;-30,-5 -50,0 -30,5;-30,-5 -54,0 -30,5" dur=".3s" repeatCount="indefinite"/></polygon>
<polygon points="-30,-3 -44,0 -30,3" fill="#FEE440"><animate attributeName="points" values="-30,-3 -44,0 -30,3;-30,-3.5 -52,0 -30,3.5;-30,-3 -42,0 -30,3;-30,-3 -44,0 -30,3" dur=".3s" repeatCount="indefinite"/></polygon>
<polygon points="-6,-8 -24,-25 -15,-25 10,-8" fill="#7B2FF7"/>
<polygon points="-6,8 -24,25 -15,25 10,8" fill="#7B2FF7"/>
<polygon points="-6,-8 -20,-21 -15,-21 2,-8" fill="#F15BB5" opacity=".8"/>
<polygon points="-6,8 -20,21 -15,21 2,8" fill="#F15BB5" opacity=".8"/>
<path d="M-32,-7 Q-32,-10 -27,-10 L14,-10 Q34,-7 40,0 Q34,7 14,10 L-27,10 Q-32,10 -32,7 Z" fill="url(#hull)"/>
<rect x="-26" y="-2" width="30" height="4" fill="#F15BB5" opacity=".85"/>
<ellipse cx="14" cy="0" rx="10" ry="5.5" fill="url(#glass)"/>
<ellipse cx="11" cy="-1.5" rx="4" ry="1.8" fill="#fff" opacity=".7"/>
</g><animateMotion path="M -70,32 C 250,11 600,54 1080,17" dur="16s" begin="4s" repeatCount="indefinite" rotate="auto"/></g>
<line x1="60" y1="52" x2="192.5" y2="52" stroke="url(#txt)" stroke-width="1.5" opacity=".6"/><line x1="807.5" y1="52" x2="940" y2="52" stroke="url(#txt)" stroke-width="1.5" opacity=".6"/><path d="M192.5,46 L193.82,50.68 L198.5,52 L193.82,53.32 L192.5,58 L191.18,53.32 L186.5,52 L191.18,50.68 Z" fill="#00F5D4" class="sp" style="animation-delay:0s"/><path d="M807.5,46 L808.82,50.68 L813.5,52 L808.82,53.32 L807.5,58 L806.18,53.32 L801.5,52 L806.18,50.68 Z" fill="#F15BB5" class="sp" style="animation-delay:1.3s"/><text x="500" y="62" text-anchor="middle" font-family="'Segoe UI','Helvetica Neue',Arial,sans-serif" font-weight="800" font-size="28" letter-spacing="5" fill="url(#txt)" filter="url(#glow)">LET'S BUILD SOMETHING</text><text x="500" y="111.0" text-anchor="middle" font-family="'Segoe UI','Helvetica Neue',Arial,sans-serif" font-size="19" font-weight="700" fill="#FEE440">I'm looking for an entry-level Generative AI or Cloud Engineering role</text><text x="500" y="139.5" text-anchor="middle" font-family="'Segoe UI','Helvetica Neue',Arial,sans-serif" font-size="19" font-weight="700" fill="#FEE440">where I can own real systems.</text><text x="500" y="172.0" text-anchor="middle" font-family="'Segoe UI','Helvetica Neue',Arial,sans-serif" font-size="17" font-weight="400" fill="#E0E0FF">Relocation welcome.</text>
</g>
<rect x="1" y="1" width="998" height="212" rx="17" fill="none" stroke="#7B2FF7" stroke-opacity=".6" stroke-width="2"/>
</svg>